<?xml version="1.0" standalone="no"?>
<!DOCTYPE svg PUBLIC "-//W3C//DTD SVG 20010904//EN"
 "http://www.w3.org/TR/2001/REC-SVG-20010904/DTD/svg10.dtd">
<svg version="1.0" xmlns="http://www.w3.org/2000/svg"
 width="512.000000pt" height="512.000000pt" viewBox="0 0 512.000000 512.000000"
 preserveAspectRatio="xMidYMid meet">

<g transform="translate(0.000000,512.000000) scale(0.100000,-0.100000)"
fill="#000000" stroke="none">
<path d="M1585 4856 c-28 -7 -72 -23 -99 -35 -60 -29 -157 -118 -189 -174 -14
-23 -112 -251 -218 -507 l-194 -465 0 -110 c0 -91 4 -120 23 -167 33 -81 99
-167 164 -211 61 -42 650 -292 788 -334 76 -24 102 -26 240 -27 128 0 169 4
232 22 146 40 287 117 394 215 l55 50 341 -142 c236 -99 350 -141 371 -139 62
6 86 84 38 124 -10 9 -159 74 -332 146 -173 72 -315 131 -317 133 -2 1 13 31
32 66 41 77 72 162 90 249 7 36 18 64 23 63 6 -1 210 -85 454 -187 416 -173
444 -186 441 -208 -17 -140 -17 -135 24 -176 29 -28 73 -52 166 -90 69 -29
136 -52 148 -52 47 0 90 31 117 84 14 28 27 52 28 54 4 5 224 -87 278 -116 80
-43 109 -115 83 -205 -17 -57 -71 -129 -117 -152 -64 -34 -100 -24 -470 130
-192 80 -359 145 -370 145 -83 0 -101 -106 -24 -143 19 -9 188 -80 376 -158
322 -133 345 -141 408 -141 115 0 216 55 284 154 50 72 69 130 70 213 3 123
-50 223 -147 280 -66 39 -333 145 -364 145 -58 0 -145 -64 -164 -121 -3 -8
-167 51 -187 67 -2 2 4 21 13 44 9 22 16 58 16 80 0 76 -7 80 -560 309 l-505
210 -7 59 c-23 207 -130 425 -275 563 -70 67 -121 103 -204 147 -94 50 -690
297 -749 311 -59 14 -142 12 -205 -3z m175 -150 c91 -24 697 -281 758 -322
123 -81 221 -196 285 -332 l31 -66 -12 -90 c-44 -347 -287 -625 -628 -717
-109 -30 -317 -31 -419 -2 -38 11 -219 82 -402 158 l-332 137 -7 54 c-3 31 -2
73 4 97 14 53 354 874 390 940 40 75 116 129 205 147 61 12 68 11 127 -4z"/>
<path d="M1692 4339 c-94 -47 -118 -82 -223 -332 -90 -216 -93 -224 -93 -302
-1 -64 4 -89 22 -126 75 -152 250 -213 400 -138 99 49 112 70 238 374 72 174
78 196 79 260 1 220 -227 362 -423 264z m181 -133 c18 -7 45 -28 60 -45 47
-56 40 -98 -58 -332 -47 -112 -95 -213 -107 -226 -45 -48 -130 -54 -187 -13
-36 25 -66 98 -57 136 12 46 165 408 184 434 22 29 77 60 110 60 12 0 37 -6
55 -14z"/>
<path d="M2220 2259 c-131 -14 -314 -51 -820 -165 -256 -58 -475 -107 -487
-110 -20 -5 -24 0 -34 41 -15 61 -78 129 -134 144 -25 7 -144 11 -310 11 -242
0 -274 -2 -310 -19 -53 -24 -83 -55 -106 -105 -17 -37 -19 -69 -19 -314 0
-162 4 -281 10 -292 5 -10 25 -24 44 -30 39 -13 69 -3 86 30 6 11 10 121 10
279 0 250 1 262 20 281 20 20 30 21 281 18 218 -3 261 -5 269 -18 6 -9 10
-274 10 -667 l0 -652 -22 -15 c-19 -14 -62 -16 -270 -16 -235 0 -249 1 -268
20 -19 19 -20 33 -20 250 0 217 -1 231 -20 250 -30 30 -83 27 -109 -6 -20 -25
-21 -39 -21 -264 l0 -238 28 -53 c22 -43 38 -59 81 -81 l53 -28 279 0 c309 0
325 3 387 63 20 19 39 52 48 83 l15 51 462 -117 c254 -65 651 -166 882 -226
l420 -108 155 1 c154 0 157 0 455 66 165 36 424 93 575 126 151 32 444 96 650
141 211 45 397 91 426 104 73 33 129 88 165 161 75 152 33 314 -99 388 -92 52
-113 50 -807 -57 -380 -59 -649 -96 -696 -96 -42 0 -134 11 -205 24 -221 42
-844 185 -874 201 -44 23 -64 58 -57 101 7 40 31 72 64 85 13 5 118 -2 265
-17 205 -21 254 -24 313 -14 137 22 224 81 277 188 30 60 33 76 33 152 0 76
-4 93 -33 152 -60 123 -164 194 -335 229 -333 67 -536 87 -707 68z m420 -169
c294 -51 339 -62 392 -94 75 -45 113 -109 113 -191 0 -81 -29 -125 -105 -163
-68 -33 -123 -34 -414 -2 -110 11 -214 18 -230 14 -148 -32 -242 -196 -191
-330 22 -58 76 -119 127 -145 39 -20 663 -164 923 -214 209 -40 232 -38 930
69 341 53 635 96 654 96 74 0 131 -56 131 -127 -1 -69 -71 -159 -142 -182 -18
-6 -105 -26 -193 -45 -1866 -405 -1786 -390 -1931 -367 -40 6 -424 101 -855
210 -431 110 -823 210 -871 222 l-88 21 0 482 0 481 503 113 c561 126 711 157
842 171 113 12 269 5 405 -19z"/>
</g>
</svg>
